<svg width="310" height="309" xmlns="http://www.w3.org/2000/svg">
 <!-- Created with Method Draw - http://github.com/duopixel/Method-Draw/ -->

 <g>
  <title>background</title>
  <rect fill="none" id="canvas_background" height="311" width="312" y="-1" x="-1"/>
  <g display="none" overflow="visible" y="0" x="0" height="100%" width="100%" id="canvasGrid">
   <rect fill="url(#gridpattern)" stroke-width="0" y="1.361305" x="1" height="400" width="308"/>
  </g>
 </g>
 <g>
  <title>Layer 1</title>
  <g stroke="null" id="svg_35">
   <g stroke="null" transform="matrix(0.5990648546616016,0,0,0.5990648546616016,-2407.745798897784,-1702.7212799311092) " id="svg_5"/>
   <path stroke="null" id="svg_15" fill="#FC7176" d="m303.250792,67.818407c-26.733269,26.733269 -57.745059,25.977848 -87.736043,25.247588c-32.065545,-0.781181 -62.352467,-1.519228 -92.840675,28.968979s-29.75016,60.77513 -28.968979,92.840675c0.730859,29.990385 1.486879,61.001576 -25.247588,87.736043c-5.480844,5.480844 -14.367372,5.480844 -19.847618,0c-5.480844,-5.480844 -5.480844,-14.366773 0,-19.847618c18.227746,-18.227746 17.701168,-39.840808 17.034409,-67.204893c-0.423539,-17.365692 -0.860257,-35.32326 3.569827,-54.38131c5.171727,-22.24867 16.166364,-41.544549 33.612331,-58.990515s36.741846,-28.440604 58.990515,-33.612331c19.058649,-4.430085 37.015618,-3.992767 54.38131,-3.569827c27.363485,0.666759 48.976547,1.193337 67.204893,-17.034409c5.480844,-5.480844 14.367372,-5.480844 19.847618,0c5.480245,5.480844 5.480245,14.366773 0,19.847618z"/>
   <path stroke="null" id="svg_19" fill="#c42727" d="m239.54264,4.110255c-26.73327,26.73327 -25.97785,57.74506 -25.24759,87.73604c0.78118,32.06555 1.51923,62.35247 -28.96898,92.84068s-60.77513,29.75016 -92.84067,28.96898c-29.99039,-0.73086 -61.00158,-1.48688 -87.73604,25.24759c-5.48085,5.48084 -5.48085,14.36737 0,19.84761s14.36677,5.48085 19.84761,0c18.22775,-18.22774 39.84081,-17.70116 67.2049,-17.0344c17.36569,0.42353 35.32326,0.86025 54.38131,-3.56983c22.24867,-5.17173 41.54454,-16.16637 58.99051,-33.61233c17.44597,-17.44597 28.44061,-36.74185 33.61233,-58.98992c4.43009,-19.05865 3.99277,-37.01562 3.56983,-54.38251c-0.66676,-27.36348 -1.19334,-48.97655 17.03441,-67.20489c5.48084,-5.48084 5.48084,-14.36737 0,-19.84762c-5.48025,-5.47964 -14.36677,-5.47964 -19.84762,0.0006z"/>
   <g stroke="null" transform="matrix(0.5990648546616016,0,0,0.5990648546616016,-2407.745798897784,-1702.7212799311092) " id="svg_20"/>
   <g stroke="null" transform="matrix(0.5990648546616016,0,0,0.5990648546616016,-2407.745798897784,-1702.7212799311092) " id="svg_21"/>
   <g stroke="null" transform="matrix(0.5990648546616016,0,0,0.5990648546616016,-2407.745798897784,-1702.7212799311092) " id="svg_22"/>
   <g stroke="null" transform="matrix(0.5990648546616016,0,0,0.5990648546616016,-2407.745798897784,-1702.7212799311092) " id="svg_23"/>
   <g stroke="null" transform="matrix(0.5990648546616016,0,0,0.5990648546616016,-2407.745798897784,-1702.7212799311092) " id="svg_24"/>
   <g stroke="null" transform="matrix(0.5990648546616016,0,0,0.5990648546616016,-2407.745798897784,-1702.7212799311092) " id="svg_25"/>
   <g stroke="null" transform="matrix(0.5990648546616016,0,0,0.5990648546616016,-2407.745798897784,-1702.7212799311092) " id="svg_26"/>
   <g stroke="null" transform="matrix(0.5990648546616016,0,0,0.5990648546616016,-2407.745798897784,-1702.7212799311092) " id="svg_27"/>
   <g stroke="null" transform="matrix(0.5990648546616016,0,0,0.5990648546616016,-2407.745798897784,-1702.7212799311092) " id="svg_28"/>
   <g stroke="null" transform="matrix(0.5990648546616016,0,0,0.5990648546616016,-2407.745798897784,-1702.7212799311092) " id="svg_29"/>
   <g stroke="null" transform="matrix(0.5990648546616016,0,0,0.5990648546616016,-2407.745798897784,-1702.7212799311092) " id="svg_30"/>
   <g stroke="null" transform="matrix(0.5990648546616016,0,0,0.5990648546616016,-2407.745798897784,-1702.7212799311092) " id="svg_31"/>
   <g stroke="null" transform="matrix(0.5990648546616016,0,0,0.5990648546616016,-2407.745798897784,-1702.7212799311092) " id="svg_32"/>
   <g stroke="null" transform="matrix(0.5990648546616016,0,0,0.5990648546616016,-2407.745798897784,-1702.7212799311092) " id="svg_33"/>
   <g stroke="null" transform="matrix(0.5990648546616016,0,0,0.5990648546616016,-2407.745798897784,-1702.7212799311092) " id="svg_34"/>

   <g stroke="null" id="svg_46">
    <g stroke="null" transform="matrix(0.09898247254937977,0,0,0.09898247254937977,-185.6461449101052,-186.399558231169) " id="svg_42">
     <path stroke="null" fill="#ed2a2a" id="svg_44" d="m3436.477461,3721.220947c-13.77504,-15.43632 -48.17067,-45.52968 -76.4347,-66.87411c-83.7441,-63.24184 -95.14169,-72.39422 -129.14353,-103.70324c-62.68453,-57.72017 -89.30562,-115.71002 -89.21439,-194.33964c0.04451,-38.38385 2.66077,-53.17195 13.40988,-75.79726c18.2367,-38.38571 45.10027,-66.90931 79.44532,-84.35452c24.3254,-12.35578 36.32265,-17.84526 76.94443,-18.06984c42.49329,-0.23483 51.43863,4.71973 76.43471,18.45184c30.42451,16.71432 61.7399,52.43571 68.21323,77.81059l3.9981,15.6724l9.85963,-21.58451c55.71617,-121.97293 233.59836,-120.14805 295.50229,3.03159c19.63767,39.07605 21.79364,122.51317 4.38012,169.51287c-22.71527,61.30937 -65.38001,108.05053 -164.00634,179.67658c-64.68082,46.97364 -137.88474,118.04586 -142.98067,128.02803c-5.91548,11.58753 -0.28216,1.8159 -26.40808,-27.46078z"/>
     <g stroke="null" id="svg_43"/>
    </g>
   </g>
  </g>
 </g>
</svg>