<?xml version="1.0" encoding="iso-8859-1"?>
<!-- Generator: Adobe Illustrator 19.0.0, SVG Export Plug-In . SVG Version: 6.00 Build 0)  -->
<svg version="1.1" id="Capa_1" xmlns="http://www.w3.org/2000/svg" xmlns:xlink="http://www.w3.org/1999/xlink" x="0px" y="0px"
	 viewBox="0 0 456.098 456.098" style="enable-background:new 0 0 456.098 456.098;" xml:space="preserve">
<path style="fill:#4DCFE0;" d="M237.192,297.796c-1.045,0-1.567,0-2.612,0c-5.225-1.045-9.404-4.18-11.494-8.882l-52.245-118.596
	l-32.392,52.767c-2.612,4.702-7.837,7.314-13.584,7.314H15.673C6.792,230.4,0,223.608,0,214.727s6.792-15.673,15.673-15.673h100.31
	L159.347,128c3.135-5.224,8.882-7.837,14.629-7.314c5.747,0.522,10.971,4.18,13.061,9.404l54.857,124.343l47.543-50.155
	c3.135-3.135,7.314-4.702,11.494-4.702h126.433c8.882,0,15.673,6.792,15.673,15.673s-6.792,15.673-15.673,15.673H307.722
	l-59.037,62.171C245.551,296.229,241.371,297.796,237.192,297.796z"/>
<path style="fill:#1185E0;" d="M231.967,433.633c-4.18,0-7.837-1.567-10.971-4.18L82.024,295.184
	c-6.269-6.269-6.269-15.673-0.522-21.943c6.269-6.269,16.196-6.269,21.943-0.522l128,123.82l161.437-156.212
	c19.331-19.853,30.824-48.065,30.824-76.8s-10.971-56.424-31.347-77.322c-17.241-17.241-39.706-26.645-64.784-26.645
	c0,0,0,0-0.522,0c-30.302,0-61.127,13.061-84.114,36.571c-6.792,6.792-17.241,6.792-23.51,0
	c-28.735-27.167-53.812-41.273-74.71-41.273c-28.735,0-55.38,11.494-74.71,31.869c-14.629,14.629-25.078,34.482-29.257,56.424
	c-1.567,8.359-9.927,14.106-18.286,12.539c-8.359-3.135-14.106-11.494-12.016-19.853c5.747-28.212,18.808-53.29,37.616-72.098
	c25.078-26.645,60.082-41.273,97.176-41.273c26.645,0,54.857,13.584,86.727,41.273c27.69-22.988,61.649-36.049,96.131-36.049
	c0,0,0,0,0.522,0c33.437,0,64.261,13.061,87.249,36.049c26.122,27.167,40.229,62.171,40.229,99.265s-14.629,73.143-40.229,99.265
	L242.939,429.453C239.804,432.065,236.147,433.633,231.967,433.633z"/>
<g>
</g>
<g>
</g>
<g>
</g>
<g>
</g>
<g>
</g>
<g>
</g>
<g>
</g>
<g>
</g>
<g>
</g>
<g>
</g>
<g>
</g>
<g>
</g>
<g>
</g>
<g>
</g>
<g>
</g>
</svg>
