<?xml version="1.0" encoding="iso-8859-1"?>
<!-- Generator: Adobe Illustrator 19.0.0, SVG Export Plug-In . SVG Version: 6.00 Build 0)  -->
<svg version="1.1" id="Layer_1" xmlns="http://www.w3.org/2000/svg" xmlns:xlink="http://www.w3.org/1999/xlink" x="0px" y="0px"
	 viewBox="0 0 511.998 511.998" style="enable-background:new 0 0 511.998 511.998;" xml:space="preserve">
<g>
	<path style="fill:#F04C35;" d="M494.433,144.691c-28.322-78.537-96.922-87.24-117.579-88.048
		c-51.595,0.632-96.9,33.756-113.031,82.855c-0.295,0.897-0.806,1.72-1.478,2.382l-1.967,1.936c-1.117,1.102-2.599,1.708-4.17,1.708
		c-1.571,0-3.051-0.606-4.17-1.708l-2.348-2.31c-0.668-0.657-1.177-1.475-1.471-2.363c-16.39-49.363-62.37-82.528-114.417-82.528
		c-66.464,0-120.537,54.073-120.537,120.537c0,2.524,0.084,5.08,0.259,7.824c0.009,0.132,0.013,0.266,0.012,0.4
		c-0.162,31.575,12.136,61.155,34.628,83.288c0.293,0.29,0.561,0.613,0.791,0.964l0.64,0.97h64.082l58.337-105.868
		c3.896-7.072,11.34-11.466,19.429-11.466l0.489,0.005c8.3,0.196,15.728,4.941,19.384,12.386l47.109,95.901l32.819-67.13
		c3.729-7.628,11.322-12.39,19.803-12.428c8.515,0,16.151,4.694,19.93,12.252l36.975,73.953h96.758l0.634-0.642
		c22.419-22.663,34.616-53.933,33.468-85.785c-0.007-0.141-0.007-0.281-0.002-0.421c0.057-1.632,0.082-2.969,0.082-4.201
		C498.892,165.905,497.326,155.022,494.433,144.691z"/>
	<path style="fill:#F04C35;" d="M334.434,300.27l-23.057-46.114l-32.994,67.488c-3.686,7.542-11.495,12.42-19.888,12.429
		c-8.529,0-16.161-4.748-19.914-12.391l-48.286-98.293l-44.118,80.062c-3.897,7.072-11.333,11.466-19.408,11.466H95.171
		l127.698,125.663c3.605,3.473,16.713,14.805,34.026,14.806h0.004c11.676,0,22.814-5.133,33.118-15.267l129.666-127.597h-65.426
		C345.809,312.522,338.211,307.827,334.434,300.27z"/>
</g>
<g style="opacity:0.19;">
	<path style="fill:#202121;" d="M165.638,303.45l33.829-61.393l-9.171-18.669l-44.118,80.062
		c-3.897,7.072-11.333,11.466-19.408,11.466h19.459C154.305,314.917,161.742,310.522,165.638,303.45z"/>
	<path style="fill:#202121;" d="M277.956,334.072c8.393-0.009,16.201-4.887,19.888-12.429l23.373-47.81l-9.84-19.677l-32.994,67.488
		c-2.196,4.492-5.859,8.027-10.23,10.163C271.137,333.266,274.47,334.072,277.956,334.072z"/>
	<path style="fill:#202121;" d="M242.327,440.579L114.631,314.917H95.172l127.697,125.663c3.605,3.473,16.713,14.805,34.026,14.806
		h0.004c3.254,0,6.465-0.414,9.632-1.209C254.187,451.167,245.213,443.359,242.327,440.579z"/>
</g>
<g style="opacity:0.19;">
	<path style="fill:#202121;" d="M67.624,268.661c-22.493-22.133-34.791-51.713-34.628-83.288c0.001-0.134-0.003-0.267-0.012-0.4
		c-0.175-2.744-0.259-5.299-0.259-7.824c0-63.197,48.889-115.187,110.832-120.145c-3.224-0.258-6.477-0.391-9.753-0.391
		c-66.464,0-120.537,54.073-120.537,120.537c0,2.524,0.084,5.08,0.259,7.824c0.009,0.132,0.013,0.266,0.012,0.4
		c-0.162,31.575,12.136,61.155,34.628,83.288c0.293,0.29,0.561,0.613,0.791,0.964l0.64,0.97h19.459l-0.64-0.97
		C68.185,269.274,67.918,268.949,67.624,268.661z"/>
	<path style="fill:#202121;" d="M330.506,181.994c-3.429,0.015-6.704,0.814-9.645,2.25c4.306,2.09,7.886,5.541,10.116,10.002
		l36.975,73.953h19.459l-36.975-73.953C346.657,186.688,339.022,181.994,330.506,181.994z"/>
	<path style="fill:#202121;" d="M230.775,165.651c-3.656-7.444-11.084-12.19-19.384-12.386l-0.489-0.005
		c-3.438,0-6.757,0.801-9.738,2.256c4.336,2.118,7.938,5.627,10.152,10.134l47.109,95.901l9.707-19.853L230.775,165.651z"/>
</g>
<g>
	<path style="fill:#F04C35;" d="M257.79,337.622c-9.369,0-17.735-5.211-21.854-13.6l-46.456-94.567l-42.112,76.426
		c-4.279,7.763-12.441,12.586-21.304,12.586H101.15c-4.478,0-8.108-3.629-8.108-8.108s3.63-8.108,8.108-8.108h24.913
		c2.954,0,5.675-1.608,7.101-4.196l49.625-90.062c1.459-2.647,4.278-4.253,7.292-4.192c3.022,0.071,5.753,1.817,7.086,4.531
		l53.319,108.541c1.374,2.797,4.162,4.533,7.278,4.533c3.079-0.003,5.935-1.788,7.284-4.547l38.276-78.29
		c1.353-2.771,4.164-4.533,7.246-4.547c0.013,0,0.025,0,0.036,0c3.07,0,5.879,1.734,7.253,4.482l28.437,56.871
		c1.381,2.766,4.16,4.483,7.251,4.483H503.89c4.479,0,8.108,3.629,8.108,8.108c0,4.479-3.629,8.108-8.108,8.108H353.549
		c-9.273,0-17.611-5.153-21.756-13.446l-21.102-42.203l-31.073,63.559C275.572,332.259,267.003,337.613,257.79,337.622z"/>
	<path style="fill:#F04C35;" d="M117.98,275.438H8.108C3.63,275.438,0,271.809,0,267.33c0-4.479,3.63-8.108,8.108-8.108h105.083
		l57.719-104.748c4.387-7.958,12.773-12.796,21.863-12.578c9.114,0.215,17.26,5.424,21.273,13.592l45.165,91.942l30.881-63.167
		c4.092-8.373,12.423-13.598,21.743-13.641c9.381,0,17.717,5.152,21.864,13.446l36.377,72.758h90.52
		c4.479,0,8.108,3.629,8.108,8.108c0,4.479-3.629,8.108-8.108,8.108h-95.531c-3.07,0-5.879-1.735-7.251-4.482l-38.62-77.241
		c-1.383-2.765-4.162-4.482-7.253-4.482c-3.142,0.014-5.919,1.756-7.284,4.547l-38.147,78.03c-1.36,2.779-4.181,4.544-7.275,4.547
		c-0.002,0-0.005,0-0.009,0c-3.091,0-5.913-1.758-7.277-4.533l-52.46-106.791c-1.338-2.723-4.054-4.459-7.087-4.531
		c-2.989-0.088-5.853,1.58-7.293,4.193l-60.029,108.943C123.656,273.831,120.935,275.438,117.98,275.438z"/>
</g>
<g>
</g>
<g>
</g>
<g>
</g>
<g>
</g>
<g>
</g>
<g>
</g>
<g>
</g>
<g>
</g>
<g>
</g>
<g>
</g>
<g>
</g>
<g>
</g>
<g>
</g>
<g>
</g>
<g>
</g>
</svg>
